<mxfile host="Electron" modified="2024-02-15T04:31:41.182Z" agent="Mozilla/5.0 (Macintosh; Intel Mac OS X 10_15_7) AppleWebKit/537.36 (KHTML, like Gecko) draw.io/23.0.2 Chrome/120.0.6099.109 Electron/28.1.0 Safari/537.36" etag="Upp6YT0QypmizUClKrRV" version="23.0.2" type="device">
  <diagram name="페이지-1" id="yLKCZHqxhuddQBt8Jrdt">
    <mxGraphModel dx="1941" dy="894" grid="1" gridSize="10" guides="1" tooltips="1" connect="1" arrows="1" fold="1" page="1" pageScale="1" pageWidth="827" pageHeight="1169" math="0" shadow="0">
      <root>
        <mxCell id="0" />
        <mxCell id="1" parent="0" />
        <mxCell id="ks9vOWqAryDKQxWPKdHL-1" style="edgeStyle=orthogonalEdgeStyle;rounded=0;orthogonalLoop=1;jettySize=auto;html=1;entryX=0.25;entryY=0;entryDx=0;entryDy=0;endArrow=block;endFill=1;" edge="1" parent="1" source="ks9vOWqAryDKQxWPKdHL-2" target="ks9vOWqAryDKQxWPKdHL-6">
          <mxGeometry relative="1" as="geometry" />
        </mxCell>
        <mxCell id="ks9vOWqAryDKQxWPKdHL-2" value="" style="sketch=0;outlineConnect=0;fontColor=#232F3E;gradientColor=none;fillColor=#232F3D;strokeColor=none;dashed=0;verticalLabelPosition=bottom;verticalAlign=top;align=center;html=1;fontSize=12;fontStyle=0;aspect=fixed;pointerEvents=1;shape=mxgraph.aws4.user;" vertex="1" parent="1">
          <mxGeometry x="196" y="30" width="30" height="30" as="geometry" />
        </mxCell>
        <mxCell id="ks9vOWqAryDKQxWPKdHL-3" style="edgeStyle=orthogonalEdgeStyle;rounded=0;orthogonalLoop=1;jettySize=auto;html=1;exitX=0.25;exitY=1;exitDx=0;exitDy=0;entryX=0.25;entryY=0;entryDx=0;entryDy=0;endArrow=block;endFill=1;" edge="1" parent="1" source="ks9vOWqAryDKQxWPKdHL-6" target="ks9vOWqAryDKQxWPKdHL-9">
          <mxGeometry relative="1" as="geometry" />
        </mxCell>
        <mxCell id="ks9vOWqAryDKQxWPKdHL-4" style="rounded=0;orthogonalLoop=1;jettySize=auto;html=1;exitX=1;exitY=0.5;exitDx=0;exitDy=0;entryX=0;entryY=0.5;entryDx=0;entryDy=0;endArrow=block;endFill=1;" edge="1" parent="1" source="ks9vOWqAryDKQxWPKdHL-6" target="ks9vOWqAryDKQxWPKdHL-14">
          <mxGeometry relative="1" as="geometry" />
        </mxCell>
        <mxCell id="ks9vOWqAryDKQxWPKdHL-5" style="rounded=0;orthogonalLoop=1;jettySize=auto;html=1;entryX=0;entryY=0.5;entryDx=0;entryDy=0;exitX=1;exitY=0.5;exitDx=0;exitDy=0;endArrow=block;endFill=1;" edge="1" parent="1" source="ks9vOWqAryDKQxWPKdHL-6" target="ks9vOWqAryDKQxWPKdHL-35">
          <mxGeometry relative="1" as="geometry" />
        </mxCell>
        <mxCell id="ks9vOWqAryDKQxWPKdHL-6" value="인증 필터&lt;br&gt;&lt;br&gt;(&lt;b&gt;AuthenticationFilter&lt;/b&gt;)" style="rounded=0;whiteSpace=wrap;html=1;" vertex="1" parent="1">
          <mxGeometry x="175" y="120" width="145" height="60" as="geometry" />
        </mxCell>
        <mxCell id="ks9vOWqAryDKQxWPKdHL-7" style="edgeStyle=orthogonalEdgeStyle;rounded=0;orthogonalLoop=1;jettySize=auto;html=1;exitX=0.25;exitY=1;exitDx=0;exitDy=0;entryX=0.25;entryY=0;entryDx=0;entryDy=0;endArrow=block;endFill=1;" edge="1" parent="1" source="ks9vOWqAryDKQxWPKdHL-9" target="ks9vOWqAryDKQxWPKdHL-13">
          <mxGeometry relative="1" as="geometry" />
        </mxCell>
        <mxCell id="ks9vOWqAryDKQxWPKdHL-8" style="edgeStyle=orthogonalEdgeStyle;rounded=0;orthogonalLoop=1;jettySize=auto;html=1;exitX=0.75;exitY=0;exitDx=0;exitDy=0;entryX=0.75;entryY=1;entryDx=0;entryDy=0;endArrow=block;endFill=1;" edge="1" parent="1" source="ks9vOWqAryDKQxWPKdHL-9" target="ks9vOWqAryDKQxWPKdHL-6">
          <mxGeometry relative="1" as="geometry" />
        </mxCell>
        <mxCell id="ks9vOWqAryDKQxWPKdHL-9" value="인증 관리자&lt;br&gt;&lt;br&gt;(&lt;b&gt;AuthenticationManager&lt;/b&gt;)" style="rounded=0;whiteSpace=wrap;html=1;" vertex="1" parent="1">
          <mxGeometry x="175" y="240" width="145" height="60" as="geometry" />
        </mxCell>
        <mxCell id="ks9vOWqAryDKQxWPKdHL-10" style="edgeStyle=orthogonalEdgeStyle;rounded=0;orthogonalLoop=1;jettySize=auto;html=1;exitX=0.75;exitY=0;exitDx=0;exitDy=0;entryX=0.75;entryY=1;entryDx=0;entryDy=0;endArrow=block;endFill=1;" edge="1" parent="1" source="ks9vOWqAryDKQxWPKdHL-13" target="ks9vOWqAryDKQxWPKdHL-9">
          <mxGeometry relative="1" as="geometry" />
        </mxCell>
        <mxCell id="ks9vOWqAryDKQxWPKdHL-11" style="rounded=0;orthogonalLoop=1;jettySize=auto;html=1;exitX=1;exitY=0.5;exitDx=0;exitDy=0;entryX=0;entryY=0.5;entryDx=0;entryDy=0;endArrow=block;endFill=1;" edge="1" parent="1" source="ks9vOWqAryDKQxWPKdHL-13" target="ks9vOWqAryDKQxWPKdHL-17">
          <mxGeometry relative="1" as="geometry" />
        </mxCell>
        <mxCell id="ks9vOWqAryDKQxWPKdHL-12" style="rounded=0;orthogonalLoop=1;jettySize=auto;html=1;entryX=0;entryY=0.5;entryDx=0;entryDy=0;exitX=1;exitY=0.5;exitDx=0;exitDy=0;endArrow=block;endFill=1;" edge="1" parent="1" source="ks9vOWqAryDKQxWPKdHL-13" target="ks9vOWqAryDKQxWPKdHL-18">
          <mxGeometry relative="1" as="geometry" />
        </mxCell>
        <mxCell id="ks9vOWqAryDKQxWPKdHL-13" value="인증 공급자&lt;br&gt;&lt;br&gt;(&lt;b&gt;AuthenticationProvider&lt;/b&gt;)" style="rounded=0;whiteSpace=wrap;html=1;" vertex="1" parent="1">
          <mxGeometry x="175" y="360" width="145" height="60" as="geometry" />
        </mxCell>
        <mxCell id="ks9vOWqAryDKQxWPKdHL-14" value="보안 컨텍스트&lt;br&gt;&lt;br&gt;(&lt;b&gt;SerucityContext&lt;/b&gt;)" style="rounded=0;whiteSpace=wrap;html=1;fillColor=#f8cecc;strokeColor=#b85450;" vertex="1" parent="1">
          <mxGeometry x="400" y="80" width="120" height="60" as="geometry" />
        </mxCell>
        <mxCell id="ks9vOWqAryDKQxWPKdHL-17" value="사용자 세부 정보 서비스&lt;br&gt;&lt;br&gt;(&lt;b&gt;UserDetailsService&lt;/b&gt;)" style="rounded=0;whiteSpace=wrap;html=1;" vertex="1" parent="1">
          <mxGeometry x="400" y="310" width="170" height="60" as="geometry" />
        </mxCell>
        <mxCell id="ks9vOWqAryDKQxWPKdHL-18" value="암호 인코더&lt;br&gt;&lt;br&gt;(&lt;b&gt;PasswordEncoder&lt;/b&gt;)" style="rounded=0;whiteSpace=wrap;html=1;" vertex="1" parent="1">
          <mxGeometry x="400" y="410" width="170" height="60" as="geometry" />
        </mxCell>
        <mxCell id="ks9vOWqAryDKQxWPKdHL-19" style="edgeStyle=orthogonalEdgeStyle;rounded=0;orthogonalLoop=1;jettySize=auto;html=1;endArrow=block;endFill=1;curved=1;fillColor=#d5e8d4;strokeColor=#82b366;" edge="1" parent="1" source="ks9vOWqAryDKQxWPKdHL-20">
          <mxGeometry relative="1" as="geometry">
            <mxPoint x="210" y="100" as="targetPoint" />
          </mxGeometry>
        </mxCell>
        <mxCell id="ks9vOWqAryDKQxWPKdHL-20" value="① 인증 필터가 요청을 가로챔" style="text;html=1;strokeColor=#82b366;fillColor=#d5e8d4;align=center;verticalAlign=middle;whiteSpace=wrap;rounded=1;" vertex="1" parent="1">
          <mxGeometry x="-20" y="70" width="150" height="30" as="geometry" />
        </mxCell>
        <mxCell id="ks9vOWqAryDKQxWPKdHL-21" style="edgeStyle=orthogonalEdgeStyle;rounded=0;orthogonalLoop=1;jettySize=auto;html=1;fillColor=#d5e8d4;strokeColor=#82b366;curved=1;endArrow=block;endFill=1;" edge="1" parent="1" source="ks9vOWqAryDKQxWPKdHL-22">
          <mxGeometry relative="1" as="geometry">
            <mxPoint x="210" y="200" as="targetPoint" />
          </mxGeometry>
        </mxCell>
        <mxCell id="ks9vOWqAryDKQxWPKdHL-22" value="② 인증 관리자에게 &lt;br&gt;인증 책임이 위임됨" style="text;html=1;strokeColor=#82b366;fillColor=#d5e8d4;align=left;verticalAlign=middle;whiteSpace=wrap;rounded=1;" vertex="1" parent="1">
          <mxGeometry x="-10" y="195" width="104" height="45" as="geometry" />
        </mxCell>
        <mxCell id="ks9vOWqAryDKQxWPKdHL-23" style="edgeStyle=orthogonalEdgeStyle;rounded=0;orthogonalLoop=1;jettySize=auto;html=1;curved=1;fillColor=#d5e8d4;strokeColor=#82b366;endArrow=block;endFill=1;" edge="1" parent="1" source="ks9vOWqAryDKQxWPKdHL-24">
          <mxGeometry relative="1" as="geometry">
            <mxPoint x="210" y="340" as="targetPoint" />
          </mxGeometry>
        </mxCell>
        <mxCell id="ks9vOWqAryDKQxWPKdHL-24" value="③ 인증 관리자는 인증 논리를 구현하는 인증 공급자를 이용함" style="text;html=1;strokeColor=#82b366;fillColor=#d5e8d4;align=left;verticalAlign=middle;whiteSpace=wrap;rounded=1;" vertex="1" parent="1">
          <mxGeometry x="-70" y="300" width="186" height="50" as="geometry" />
        </mxCell>
        <mxCell id="ks9vOWqAryDKQxWPKdHL-27" style="edgeStyle=orthogonalEdgeStyle;rounded=0;orthogonalLoop=1;jettySize=auto;html=1;fillColor=#f8cecc;strokeColor=#b85450;curved=1;endArrow=block;endFill=1;" edge="1" parent="1" source="ks9vOWqAryDKQxWPKdHL-28">
          <mxGeometry relative="1" as="geometry">
            <mxPoint x="360" y="130" as="targetPoint" />
          </mxGeometry>
        </mxCell>
        <mxCell id="ks9vOWqAryDKQxWPKdHL-28" value="⑥ 인증이 성공하면 인증된 엔티티에 관한 세부 정보가 보안 컨텍스트에 저장됨" style="text;html=1;strokeColor=#b85450;fillColor=#f8cecc;align=left;verticalAlign=middle;whiteSpace=wrap;rounded=1;" vertex="1" parent="1">
          <mxGeometry x="510" y="25" width="187.5" height="40" as="geometry" />
        </mxCell>
        <mxCell id="ks9vOWqAryDKQxWPKdHL-33" style="edgeStyle=orthogonalEdgeStyle;rounded=0;orthogonalLoop=1;jettySize=auto;html=1;fillColor=#d5e8d4;strokeColor=#82b366;curved=1;endArrow=block;endFill=1;" edge="1" parent="1" source="ks9vOWqAryDKQxWPKdHL-34">
          <mxGeometry relative="1" as="geometry">
            <mxPoint x="350" y="170" as="targetPoint" />
          </mxGeometry>
        </mxCell>
        <mxCell id="ks9vOWqAryDKQxWPKdHL-34" value="⑦ 인증 필터가 컨트롤러에 위임" style="text;html=1;strokeColor=#82b366;fillColor=#d5e8d4;align=left;verticalAlign=middle;whiteSpace=wrap;rounded=1;" vertex="1" parent="1">
          <mxGeometry x="550" y="220" width="187.5" height="40" as="geometry" />
        </mxCell>
        <mxCell id="ks9vOWqAryDKQxWPKdHL-76" style="edgeStyle=orthogonalEdgeStyle;rounded=0;orthogonalLoop=1;jettySize=auto;html=1;entryX=0.5;entryY=1;entryDx=0;entryDy=0;endArrow=block;endFill=1;dashed=1;" edge="1" parent="1" source="ks9vOWqAryDKQxWPKdHL-35" target="ks9vOWqAryDKQxWPKdHL-14">
          <mxGeometry relative="1" as="geometry" />
        </mxCell>
        <mxCell id="ks9vOWqAryDKQxWPKdHL-35" value="컨트롤러" style="rounded=0;whiteSpace=wrap;html=1;" vertex="1" parent="1">
          <mxGeometry x="400" y="190" width="120" height="30" as="geometry" />
        </mxCell>
        <mxCell id="ks9vOWqAryDKQxWPKdHL-73" value="④ 인증 공급자는 사용자 세부 정보 서비스로 사용자를 찾고, 암호 인코더로 암호를 검증함" style="text;html=1;strokeColor=#82b366;fillColor=#d5e8d4;align=left;verticalAlign=middle;whiteSpace=wrap;rounded=1;" vertex="1" parent="1">
          <mxGeometry x="600" y="350" width="217.5" height="60" as="geometry" />
        </mxCell>
        <mxCell id="ks9vOWqAryDKQxWPKdHL-74" style="edgeStyle=orthogonalEdgeStyle;rounded=0;orthogonalLoop=1;jettySize=auto;html=1;exitX=0.25;exitY=1;exitDx=0;exitDy=0;curved=1;fillColor=#d5e8d4;strokeColor=#82b366;" edge="1" parent="1">
          <mxGeometry relative="1" as="geometry">
            <mxPoint x="285" y="340" as="targetPoint" />
            <mxPoint x="381.875" y="285" as="sourcePoint" />
            <Array as="points">
              <mxPoint x="382" y="320" />
              <mxPoint x="286" y="320" />
            </Array>
          </mxGeometry>
        </mxCell>
        <mxCell id="ks9vOWqAryDKQxWPKdHL-75" value="⑤ 인증 결과가 필터로 반환됨" style="text;html=1;strokeColor=#82b366;fillColor=#d5e8d4;align=left;verticalAlign=middle;whiteSpace=wrap;rounded=1;" vertex="1" parent="1">
          <mxGeometry x="340" y="255" width="147.5" height="30" as="geometry" />
        </mxCell>
        <mxCell id="ks9vOWqAryDKQxWPKdHL-78" style="edgeStyle=orthogonalEdgeStyle;rounded=0;orthogonalLoop=1;jettySize=auto;html=1;fillColor=#f8cecc;strokeColor=#b85450;curved=1;endArrow=block;endFill=1;" edge="1" parent="1" source="ks9vOWqAryDKQxWPKdHL-77">
          <mxGeometry relative="1" as="geometry">
            <mxPoint x="460" y="170" as="targetPoint" />
          </mxGeometry>
        </mxCell>
        <mxCell id="ks9vOWqAryDKQxWPKdHL-77" value="⑧ 컨트롤러는 이제 보안 컨텍스트에 있는 세부 정보 이용 가능" style="text;html=1;strokeColor=#b85450;fillColor=#f8cecc;align=left;verticalAlign=middle;whiteSpace=wrap;rounded=1;" vertex="1" parent="1">
          <mxGeometry x="550" y="140" width="200" height="40" as="geometry" />
        </mxCell>
      </root>
    </mxGraphModel>
  </diagram>
</mxfile>
